<?xml version="1.0"?>

<svg width="100%" height="100%" viewBox="0 0 200 200" version="1.1" xmlns="http://www.w3.org/2000/svg" xmlns:xlink="http://www.w3.org/1999/xlink" xml:space="preserve" xmlns:serif="http://www.serif.com/" style="fill-rule:evenodd;clip-rule:evenodd;stroke-linejoin:round;stroke-miterlimit:2;">
    <g transform="matrix(1,0,0,1,-20,-20)">
        <path d="M220,68L220,172C220,198.492 198.492,220 172,220L68,220C41.508,220 20,198.492 20,172L20,68C20,41.508 41.508,20 68,20L172,20C198.492,20 220,41.508 220,68Z" style="fill:#fb923c;"></path>
        <g transform="matrix(1,0,0,1,1,0)">
            <path d="M120,84C98.057,84 80,102.057 80,124C80,145.943 98.057,164 120,164C141.943,164 160,145.943 160,124C160,116.868 154.132,111 147,111C139.868,111 134,116.868 134,124C134,131.68 127.68,138 120,138C112.32,138 106,131.68 106,124C106,116.32 112.32,110 120,110C127.132,110 133,104.132 133,97C133,89.868 127.132,84 120,84Z" style="fill:#1a1206;fill-rule:nonzero;"></path>
        </g>
        <g transform="matrix(1,0,0,1,-3,0)">
            <circle cx="105" cy="62" r="11" style="fill:#1a1206;"></circle>
        </g>
        <g transform="matrix(1,0,0,1,-5,0)">
            <circle cx="145" cy="62" r="11" style="fill:#1a1206;"></circle>
        </g>
    </g>
</svg>